<svg width="16" height="17" viewBox="0 0 16 17" fill="none" xmlns="http://www.w3.org/2000/svg">
<rect y="0.5" width="16" height="16" rx="4" fill="#5940DF"/>
<path d="M11.4268 4.78208C11.5981 4.60924 11.8307 4.51122 12.074 4.50942C12.3173 4.50763 12.5514 4.60222 12.7252 4.77251C12.899 4.94281 12.9983 5.17496 13.0014 5.41824C13.0045 5.66152 12.9112 5.89614 12.7418 6.07083L7.84182 12.1965C7.75764 12.2871 7.65606 12.3598 7.54315 12.4103C7.43024 12.4608 7.3083 12.4881 7.18463 12.4904C7.06096 12.4927 6.93809 12.4701 6.82335 12.4239C6.70861 12.3777 6.60436 12.3088 6.51682 12.2215L3.26807 8.97395C3.09543 8.80123 2.99848 8.567 2.99854 8.3228C2.99859 8.07859 3.09566 7.84441 3.26838 7.67177C3.44111 7.49913 3.67533 7.40217 3.91954 7.40223C4.16375 7.40229 4.39793 7.49936 4.57057 7.67208L7.13995 10.2421L11.4024 4.81083C11.4102 4.80095 11.4185 4.79155 11.4274 4.7827L11.4268 4.78208Z" fill="white"/>
</svg>
