<svg width="25" height="36" viewBox="0 0 25 36" fill="none" xmlns="http://www.w3.org/2000/svg">
<path d="M11.4182 12.874C11.3338 12.9588 11.193 12.9588 11.1085 12.874C11.0897 12.8551 11.0757 12.8316 11.0663 12.8127L9.43308 14.4523C9.25005 14.636 8.95438 14.636 8.76666 14.4523L7.14755 12.8269C6.96452 12.6431 6.96452 12.3463 7.14755 12.1578L8.78543 10.5135C8.75258 10.5041 8.72442 10.4853 8.70096 10.4617C8.61648 10.3769 8.61648 10.2356 8.70096 10.1508L9.10456 9.74558L8.75727 9.39694L10.0385 8.11072L10.3858 8.45936L10.7894 8.05418C10.8738 7.96938 11.0146 7.96938 11.0991 8.05418C11.1226 8.07774 11.1414 8.11072 11.1507 8.13899L12.7886 6.4947C12.9717 6.31095 13.2673 6.31095 13.455 6.4947L15.0742 8.12014C15.2572 8.30389 15.2572 8.60071 15.0742 8.78916L13.441 10.4287C13.441 10.4287 13.4832 10.4523 13.502 10.4711C13.5864 10.5559 13.5864 10.6973 13.502 10.7821L13.0984 11.1873L19.3214 17.4346L25 11.7338L13.9103 0.586572C13.1312 -0.195524 11.8688 -0.195524 11.0897 0.586572L0.708654 11.013L13.1828 23.5359L13.5864 23.1307C13.6709 23.0459 13.8117 23.0459 13.8962 23.1307C13.915 23.1496 13.929 23.1731 13.9384 23.192L15.5716 21.5524C15.7546 21.3687 16.0503 21.3687 16.238 21.5524L17.8571 23.1779C18.0402 23.3616 18.0402 23.6584 17.8571 23.8469L16.2193 25.4912C16.2521 25.5006 16.2803 25.5194 16.3037 25.543C16.3882 25.6278 16.3882 25.7691 16.3037 25.8539L15.9001 26.2591L16.2474 26.6078L14.9662 27.894L14.6189 27.5453L14.2153 27.9505C14.1308 28.0353 13.9901 28.0353 13.9056 27.9505C13.8821 27.927 13.8633 27.894 13.854 27.8657L12.2161 29.51C12.033 29.6938 11.7374 29.6938 11.5497 29.51L9.93054 27.8846C9.74751 27.7008 9.74751 27.404 9.93054 27.2155L11.5637 25.576C11.5637 25.576 11.5215 25.5524 11.5027 25.5336C11.4182 25.4488 11.4182 25.3074 11.5027 25.2226L11.9063 24.8174L5.68331 18.5701L0 24.2756L11.0944 35.4134C11.8735 36.1955 13.1359 36.1955 13.915 35.4134L24.3007 24.987L11.8265 12.4641L11.4229 12.8693L11.4182 12.874Z" fill="#5940DF"/>
</svg>
