<svg width="20" height="20" viewBox="0 0 20 20" fill="none" xmlns="http://www.w3.org/2000/svg">
<path d="M15.8928 2.14258H4.10711C3.02226 2.14258 2.14282 3.02202 2.14282 4.10686V15.8926C2.14282 16.9774 3.02226 17.8569 4.10711 17.8569H15.8928C16.9777 17.8569 17.8571 16.9774 17.8571 15.8926V4.10686C17.8571 3.02202 16.9777 2.14258 15.8928 2.14258ZM3.12497 5.93084C3.12497 5.46591 3.56469 5.08901 4.10711 5.08901H15.8928C16.4352 5.08901 16.875 5.46591 16.875 5.93084V16.0329C16.875 16.4978 16.4352 16.8747 15.8928 16.8747H4.10711C3.56469 16.8747 3.12497 16.4978 3.12497 16.0329V5.93084Z" fill="#A2A7B3"/>
<path d="M8.44161 9.10686C9.01541 9.10686 9.48057 8.66714 9.48057 8.12472C9.48057 7.5823 9.01541 7.14258 8.44161 7.14258C7.86781 7.14258 7.40265 7.5823 7.40265 8.12472C7.40265 8.66714 7.86781 9.10686 8.44161 9.10686Z" fill="#A2A7B3"/>
<path d="M11.5585 9.10686C12.1323 9.10686 12.5975 8.66714 12.5975 8.12472C12.5975 7.5823 12.1323 7.14258 11.5585 7.14258C10.9847 7.14258 10.5195 7.5823 10.5195 8.12472C10.5195 8.66714 10.9847 9.10686 11.5585 9.10686Z" fill="#A2A7B3"/>
<path d="M14.6754 9.10686C15.2492 9.10686 15.7143 8.66714 15.7143 8.12472C15.7143 7.5823 15.2492 7.14258 14.6754 7.14258C14.1016 7.14258 13.6364 7.5823 13.6364 8.12472C13.6364 8.66714 14.1016 9.10686 14.6754 9.10686Z" fill="#A2A7B3"/>
<path d="M5.32473 12.0533C5.89853 12.0533 6.36369 11.6136 6.36369 11.0711C6.36369 10.5287 5.89853 10.089 5.32473 10.089C4.75093 10.089 4.28577 10.5287 4.28577 11.0711C4.28577 11.6136 4.75093 12.0533 5.32473 12.0533Z" fill="#A2A7B3"/>
<path d="M8.44161 12.0533C9.01541 12.0533 9.48057 11.6136 9.48057 11.0711C9.48057 10.5287 9.01541 10.089 8.44161 10.089C7.86781 10.089 7.40265 10.5287 7.40265 11.0711C7.40265 11.6136 7.86781 12.0533 8.44161 12.0533Z" fill="#A2A7B3"/>
<path d="M11.5585 12.0533C12.1323 12.0533 12.5975 11.6136 12.5975 11.0711C12.5975 10.5287 12.1323 10.089 11.5585 10.089C10.9847 10.089 10.5195 10.5287 10.5195 11.0711C10.5195 11.6136 10.9847 12.0533 11.5585 12.0533Z" fill="#A2A7B3"/>
<path d="M14.6754 12.0533C15.2492 12.0533 15.7143 11.6136 15.7143 11.0711C15.7143 10.5287 15.2492 10.089 14.6754 10.089C14.1016 10.089 13.6364 10.5287 13.6364 11.0711C13.6364 11.6136 14.1016 12.0533 14.6754 12.0533Z" fill="#A2A7B3"/>
<path d="M5.32473 14.9997C5.89853 14.9997 6.36369 14.56 6.36369 14.0176C6.36369 13.4752 5.89853 13.0354 5.32473 13.0354C4.75093 13.0354 4.28577 13.4752 4.28577 14.0176C4.28577 14.56 4.75093 14.9997 5.32473 14.9997Z" fill="#A2A7B3"/>
<path d="M8.44161 14.9997C9.01541 14.9997 9.48057 14.56 9.48057 14.0176C9.48057 13.4752 9.01541 13.0354 8.44161 13.0354C7.86781 13.0354 7.40265 13.4752 7.40265 14.0176C7.40265 14.56 7.86781 14.9997 8.44161 14.9997Z" fill="#A2A7B3"/>
<path d="M11.5585 14.9997C12.1323 14.9997 12.5975 14.56 12.5975 14.0176C12.5975 13.4752 12.1323 13.0354 11.5585 13.0354C10.9847 13.0354 10.5195 13.4752 10.5195 14.0176C10.5195 14.56 10.9847 14.9997 11.5585 14.9997Z" fill="#A2A7B3"/>
</svg>
